<svg width="43" height="66" viewBox="0 0 43 66" fill="none" xmlns="http://www.w3.org/2000/svg">
<path d="M1 8.20086C0.99984 7.24407 1.18563 6.29684 1.54652 5.41454C1.90741 4.53223 2.43616 3.73255 3.10186 3.06223C3.76756 2.39191 4.55685 1.8644 5.42362 1.51053C6.29039 1.15665 7.21724 0.983516 8.15 1.00123C9.25365 0.995224 10.3459 1.22985 11.3545 1.68956C12.363 2.14927 13.2648 2.82357 14 3.66776C14.7352 2.82357 15.637 2.14927 16.6455 1.68956C17.6541 1.22985 18.7463 0.995224 19.85 1.00123C20.7828 0.983516 21.7096 1.15665 22.5764 1.51053C23.4431 1.8644 24.2324 2.39191 24.8981 3.06223C25.5638 3.73255 26.0926 4.53223 26.4535 5.41454C26.8144 6.29684 27.0002 7.24407 27 8.20086C27 12.8055 24.7114 14.6827 21 18C18 17 16.5793 18.0973 15.5 19C14.6069 19.747 14.7571 24.3138 14 25C9.3031 20.6976 1 15.3472 1 8.20086Z" fill="#FF4A4A"/>
<path d="M15.9795 66C16.4927 65.7319 16.6766 65.313 16.665 64.733C16.638 63.252 16.6805 61.7685 16.6393 60.2875C16.6277 59.8841 16.494 59.4382 16.283 59.094C15.0702 57.1207 13.8303 55.1641 12.5749 53.2179C11.474 51.5101 10.9248 49.6592 10.9492 47.6201C10.9762 45.4083 10.9389 43.1953 10.9633 40.9835C10.9813 39.3054 12.3203 38.077 14.0489 38.175C14.0489 38.4199 14.0489 38.6712 14.0489 38.9213C14.0489 40.8108 14.0464 42.7016 14.0502 44.5912C14.0515 45.3903 14.4168 45.8272 15.047 45.8066C15.6464 45.7873 15.9769 45.3645 15.9769 44.5886C15.9782 36.6425 15.9769 28.695 15.9795 20.7489C15.9795 19.3298 16.7011 18.3837 17.9615 18.1298C19.2233 17.8759 20.5185 18.7433 20.7384 20.0116C20.7963 20.3468 20.7989 20.6961 20.7989 21.0389C20.8027 27.0091 20.8002 32.9807 20.8027 38.9509C20.8027 39.2293 20.7963 39.5142 20.8529 39.7835C20.9545 40.2682 21.2889 40.5118 21.779 40.5066C22.269 40.5015 22.5905 40.2463 22.6883 39.7616C22.7346 39.5335 22.7307 39.2925 22.7307 39.0566C22.7359 37.167 22.7153 35.2762 22.7449 33.3867C22.7629 32.2679 23.4227 31.4043 24.3964 31.0911C25.3494 30.7844 26.4247 31.0434 26.9829 31.8774C27.298 32.3465 27.5102 32.9729 27.5295 33.5362C27.5951 35.4451 27.5527 37.3578 27.5565 39.2693C27.5578 40.0787 27.9051 40.5156 28.5276 40.5118C29.1476 40.5079 29.4833 40.0735 29.4846 39.2564C29.4871 37.3668 29.4807 35.476 29.4871 33.5865C29.4923 32.0694 30.5148 30.9648 31.9 30.9648C33.266 30.9648 34.2846 32.0307 34.3026 33.5272C34.3245 35.3316 34.3142 37.1348 34.3181 38.9393C34.3181 39.1326 34.3116 39.326 34.3258 39.5193C34.3734 40.1547 34.7206 40.5092 35.2814 40.5092C35.8371 40.5092 36.2191 40.1496 36.2345 39.5167C36.2628 38.358 36.2345 37.1967 36.2512 36.038C36.2705 34.8277 36.9483 33.9254 38.0185 33.6406C39.5928 33.223 41.0526 34.401 41.059 36.1269C41.0719 39.4123 41.0655 42.6991 41.0616 45.9845C41.0603 47.0143 41.086 48.0493 41.0127 49.0753C40.9111 50.4867 40.4326 51.7923 39.7278 53.0181C38.5947 54.9888 37.4474 56.9518 36.3631 58.9484C36.102 59.4304 35.9631 60.0285 35.9387 60.5801C35.8795 61.9309 35.9425 63.2855 35.9091 64.6376C35.8949 65.2305 36.0531 65.6829 36.5625 65.9948H37.2056C37.7175 65.6842 37.8757 65.2305 37.859 64.6376C37.8242 63.3706 37.823 62.1023 37.8641 60.8366C37.877 60.4306 37.994 59.9898 38.1895 59.6354C39.2249 57.7574 40.2899 55.8949 41.3664 54.0402C42.47 52.139 43.0089 50.1 42.9999 47.8985C42.9832 43.9673 43.0037 40.0362 42.9909 36.105C42.9832 33.7811 41.3626 31.9392 39.0847 31.6402C38.0442 31.5036 37.0988 31.8194 36.1573 32.3749C35.6274 30.7019 34.583 29.5509 32.8775 29.1552C31.1605 28.7582 29.7186 29.3356 28.5431 30.6052C26.5237 28.8446 25.6607 28.6976 22.7372 29.6462C22.7372 29.391 22.7372 29.1668 22.7372 28.9425C22.7372 26.2783 22.7552 23.6154 22.7243 20.9513C22.7166 20.2952 22.6124 19.6237 22.4349 18.9934C22.3204 18.59 22.3192 18.3528 22.6356 18.0499C23.6427 17.0858 24.6317 16.0998 25.5951 15.0919C28.0453 12.5282 28.844 9.49928 27.752 6.12877C26.6626 2.76343 24.2562 0.772058 20.7706 0.116002C20.6715 0.0979572 20.5789 0.0399563 20.4838 0.00128894C19.7545 0.00128894 19.0265 0.00128894 18.2972 0.00128894C16.876 0.322228 15.4946 0.739835 14.2907 1.61243C14.2046 1.67558 13.9872 1.66012 13.8946 1.59309C12.6688 0.703745 11.2592 0.301605 9.80705 0H7.74914C7.29769 0.116002 6.84238 0.220404 6.39478 0.350584C0.15802 2.16537 -2.11212 9.90657 2.27766 14.691C4.85777 17.5021 10.4806 22.1995 13.1817 24.8985C13.6575 25.3741 14.1965 25.3792 14.6055 24.9784C15.0158 24.575 14.9888 23.9911 14.5 23.5C11.9893 20.975 6.62115 16.3937 4.11692 13.861C1.52524 11.2393 1.22427 7.49889 3.35164 4.66973C5.64235 1.62145 10.0026 1.03242 13.0238 3.36535C14.0875 4.18638 14.1235 4.18638 15.1615 3.38081C18.0014 1.17549 22.0298 1.52865 24.4722 4.19927C26.8787 6.83123 26.88 10.89 24.4247 13.5026C23.3108 14.6871 22.1134 15.793 20.9339 16.9543C19.8175 16.2171 18.6008 15.9413 17.2786 16.2906C15.3518 16.7997 14.0566 18.5088 14.0528 20.5891C14.0438 25.5282 14.0489 30.4673 14.0489 35.4064C14.0489 35.6397 14.0489 35.873 14.0489 36.123C13.5692 36.1965 13.1229 36.23 12.6946 36.3357C10.5633 36.8564 9.05977 38.7086 9.03662 40.9023C9.00961 43.4144 8.99546 45.9278 9.04819 48.4399C9.09064 50.5021 9.76718 52.3904 10.872 54.1278C12.0347 55.9555 13.209 57.7755 14.3345 59.6263C14.5634 60.0027 14.6907 60.4912 14.7087 60.9346C14.7589 62.1346 14.7448 63.3397 14.7177 64.5409C14.7049 65.1364 14.8206 65.6391 15.3351 65.9923H15.9782L15.9795 66Z" fill="#4A4A4A"/>
</svg>
